<svg width="64" height="64" viewBox="0 0 64 64" fill="none" xmlns="http://www.w3.org/2000/svg">
<path d="M0 3C0 1.3375 1.18889 0 2.66667 0H7.72222C10.1667 0 12.3333 1.6 13.3444 4H59.0111C61.9333 4 64.0667 7.125 63.3 10.3L58.7444 29.3375C57.8 33.2625 54.6333 36 51.0222 36H18.9667L19.5667 39.5625C19.8111 40.975 20.9111 42 22.1889 42H54.2222C55.7 42 56.8889 43.3375 56.8889 45C56.8889 46.6625 55.7 48 54.2222 48H22.1889C18.3444 48 15.0444 44.925 14.3333 40.6875L8.6 6.8125C8.52222 6.3375 8.15556 6 7.72222 6H2.66667C1.18889 6 0 4.6625 0 3ZM14.2222 58C14.2222 57.2121 14.3602 56.4319 14.6282 55.7039C14.8962 54.9759 15.2891 54.3145 15.7843 53.7574C16.2796 53.2002 16.8675 52.7583 17.5146 52.4567C18.1616 52.1552 18.8552 52 19.5556 52C20.2559 52 20.9495 52.1552 21.5965 52.4567C22.2436 52.7583 22.8315 53.2002 23.3268 53.7574C23.822 54.3145 24.2149 54.9759 24.4829 55.7039C24.7509 56.4319 24.8889 57.2121 24.8889 58C24.8889 58.7879 24.7509 59.5681 24.4829 60.2961C24.2149 61.0241 23.822 61.6855 23.3268 62.2426C22.8315 62.7998 22.2436 63.2417 21.5965 63.5433C20.9495 63.8448 20.2559 64 19.5556 64C18.8552 64 18.1616 63.8448 17.5146 63.5433C16.8675 63.2417 16.2796 62.7998 15.7843 62.2426C15.2891 61.6855 14.8962 61.0241 14.6282 60.2961C14.3602 59.5681 14.2222 58.7879 14.2222 58ZM51.5556 52C52.97 52 54.3266 52.6321 55.3268 53.7574C56.327 54.8826 56.8889 56.4087 56.8889 58C56.8889 59.5913 56.327 61.1174 55.3268 62.2426C54.3266 63.3679 52.97 64 51.5556 64C50.1411 64 48.7845 63.3679 47.7843 62.2426C46.7841 61.1174 46.2222 59.5913 46.2222 58C46.2222 56.4087 46.7841 54.8826 47.7843 53.7574C48.7845 52.6321 50.1411 52 51.5556 52Z" fill="#FFC200"/>
</svg>
